<?xml version="1.0" encoding="iso-8859-1"?>
<!-- Generator: Adobe Illustrator 19.0.0, SVG Export Plug-In . SVG Version: 6.00 Build 0)  -->
<svg version="1.1" id="Layer_1" xmlns="http://www.w3.org/2000/svg" xmlns:xlink="http://www.w3.org/1999/xlink" x="0px" y="0px"
	 viewBox="0 0 490 490" style="enable-background:new 0 0 490 490;" xml:space="preserve">
<g>
	<g id="XMLID_31_">
		<g>
			<polygon style="fill:#FFFFFF;" points="75,32.5 75,162.5 75,199.805 245,297.5 415,199.805 415,162.5 415,32.5 			"/>
			<polygon style="fill:#FCBF47;" points="75,162.5 75,199.805 10,162.5 			"/>
			<polygon style="fill:#FCBF47;" points="480,162.5 415,199.805 415,162.5 			"/>
			<polygon style="fill:#FFD248;" points="415,199.805 480,162.5 480,457.5 10,457.5 10,162.5 75,199.805 245,297.5 			"/>
		</g>
		<g>
			<path style="fill:#231F20;" d="M485.011,153.846c-1.549-0.896-3.279-1.344-5.011-1.344V152.5h-55v-120c0-5.522-4.478-10-10-10H75
				c-5.522,0-10,4.478-10,10v120H10v0.002c-1.731,0-3.462,0.447-5.011,1.344C1.901,155.634,0,158.932,0,162.5v295
				c0,5.522,4.477,10,10,10h470c5.522,0,10-4.478,10-10v-295C490,158.932,488.099,155.634,485.011,153.846z M442.486,172.5
				L425,182.536V172.5H442.486z M405,42.5v151.519l-160,91.948L85,194.018V42.5H405z M65,182.536L47.514,172.5H65V182.536z
				 M470,447.5H20v-20h425v-20H20V179.769l50.018,28.706l170,97.695c3.084,1.773,6.881,1.773,9.965,0l169.995-97.692L470,179.769
				V447.5z"/>
			<rect x="105" y="62.5" style="fill:#231F20;" width="50" height="20"/>
			<rect x="105" y="112.5" style="fill:#231F20;" width="280" height="20"/>
			<rect x="135" y="152.5" style="fill:#231F20;" width="220" height="20"/>
			<rect x="180" y="192.5" style="fill:#231F20;" width="130" height="20"/>
			<rect x="175" y="62.5" style="fill:#231F20;" width="25" height="20"/>
		</g>
	</g>
</g>
<g>
</g>
<g>
</g>
<g>
</g>
<g>
</g>
<g>
</g>
<g>
</g>
<g>
</g>
<g>
</g>
<g>
</g>
<g>
</g>
<g>
</g>
<g>
</g>
<g>
</g>
<g>
</g>
<g>
</g>
</svg>
