<?xml version="1.0" encoding="iso-8859-1"?>
<!-- Generator: Adobe Illustrator 19.0.0, SVG Export Plug-In . SVG Version: 6.00 Build 0)  -->
<svg version="1.1" id="Layer_1" xmlns="http://www.w3.org/2000/svg" xmlns:xlink="http://www.w3.org/1999/xlink" x="0px" y="0px"
	 viewBox="0 0 512 512" style="enable-background:new 0 0 512 512;" xml:space="preserve">
<rect x="20.398" y="154.018" style="fill:#F2F2F2;" width="471.203" height="315.451"/>
<g>
	<path style="fill:#D35B38;" d="M491.431,98.038H20.569c-5.727,0-10.37,4.643-10.37,10.37v35.24c0,5.727,4.643,10.37,10.37,10.37
		h470.864c5.727,0,10.37-4.643,10.37-10.37v-35.24C501.801,102.681,497.158,98.038,491.431,98.038z"/>
	<path style="fill:#D35B38;" d="M312.052,42.534H199.948c-15.797,0-28.602,12.806-28.602,28.603v82.881h169.307V71.137
		C340.653,55.34,327.848,42.534,312.052,42.534z"/>
</g>
<rect x="183.504" y="372.393" style="fill:#73C1DD;" width="144.992" height="97.066"/>
<g>
	<rect x="66.805" y="191.694" style="fill:#FFE6B8;" width="88.131" height="54.229"/>
	<rect x="211.695" y="191.694" style="fill:#FFE6B8;" width="88.131" height="54.229"/>
	<rect x="357.064" y="191.694" style="fill:#FFE6B8;" width="88.131" height="54.229"/>
	<rect x="66.805" y="281.447" style="fill:#FFE6B8;" width="88.131" height="54.229"/>
	<rect x="211.695" y="281.447" style="fill:#FFE6B8;" width="88.131" height="54.229"/>
	<rect x="357.064" y="281.447" style="fill:#FFE6B8;" width="88.131" height="54.229"/>
</g>
<path style="fill:#4D3D36;" d="M491.602,479.664c5.633,0,10.199-4.566,10.199-10.199V161.381
	c6.09-3.575,10.199-10.176,10.199-17.733v-35.24c0-11.342-9.227-20.569-20.569-20.569H350.853V71.137
	c0-21.395-17.406-38.801-38.801-38.801H199.948c-21.395-0.001-38.801,17.406-38.801,38.801v16.702H20.569
	C9.227,87.839,0,97.066,0,108.408v35.24c0,7.558,4.109,14.159,10.199,17.733v308.082c0,5.633,4.566,10.199,10.199,10.199h471.203
	V479.664z M491.431,108.238c0.094,0,0.17,0.076,0.17,0.17v35.24c0,0.094-0.077,0.17-0.17,0.17H350.853v-35.581
	C350.853,108.238,491.431,108.238,491.431,108.238z M181.546,71.137c0-10.147,8.255-18.402,18.402-18.402h112.103
	c10.147,0,18.402,8.255,18.402,18.402v72.682H181.546V71.137z M20.398,108.408c0-0.094,0.076-0.17,0.17-0.17h140.579v35.581H20.569
	c-0.094,0-0.17-0.076-0.17-0.17V108.408z M266.199,459.266v-23.634c0-5.633-4.566-10.199-10.199-10.199s-10.199,4.566-10.199,10.199
	v23.634h-52.1v-76.669h124.598v76.669H266.199z M481.402,164.217v295.049H338.697v-86.869c0-5.633-4.566-10.199-10.199-10.199
	H183.502c-5.633,0-10.199,4.566-10.199,10.199v86.869H30.598V164.217H481.402z"/>
<path style="fill:#F2F2F2;" d="M278.438,82.321h-5.828v-5.828c0-5.633-4.566-10.199-10.199-10.199H249.59
	c-5.633,0-10.199,4.566-10.199,10.199v5.828h-5.829c-5.633,0-10.199,4.566-10.199,10.199v12.821c0,5.633,4.566,10.199,10.199,10.199
	h5.828v5.829c0,5.633,4.566,10.199,10.199,10.199h12.821c5.633,0,10.199-4.566,10.199-10.199v-5.828h5.829
	c5.633,0,10.199-4.566,10.199-10.199V92.521C288.637,86.888,284.071,82.321,278.438,82.321z"/>
<g>
	<path style="fill:#4D3D36;" d="M154.94,181.497H66.805c-5.633,0-10.199,4.566-10.199,10.199v54.23
		c0,5.633,4.566,10.199,10.199,10.199h88.135c5.633,0,10.199-4.566,10.199-10.199v-54.23
		C165.139,186.064,160.573,181.497,154.94,181.497z M144.741,235.728H77.004v-33.832h67.737V235.728z"/>
	<path style="fill:#4D3D36;" d="M299.831,181.497h-88.135c-5.633,0-10.199,4.566-10.199,10.199v54.23
		c0,5.633,4.566,10.199,10.199,10.199h88.135c5.633,0,10.199-4.566,10.199-10.199v-54.23
		C310.03,186.064,305.464,181.497,299.831,181.497z M289.632,235.728h-67.737v-33.832h67.737V235.728z"/>
	<path style="fill:#4D3D36;" d="M357.06,256.126h88.135c5.633,0,10.199-4.566,10.199-10.199v-54.23
		c0-5.633-4.566-10.199-10.199-10.199H357.06c-5.633,0-10.199,4.566-10.199,10.199v54.23
		C346.861,251.56,351.427,256.126,357.06,256.126z M367.259,201.896h67.737v33.832h-67.737V201.896z"/>
	<path style="fill:#4D3D36;" d="M154.94,271.25H66.805c-5.633,0-10.199,4.566-10.199,10.199v54.23
		c0,5.633,4.566,10.199,10.199,10.199h88.135c5.633,0,10.199-4.566,10.199-10.199v-54.23
		C165.139,275.817,160.573,271.25,154.94,271.25z M144.741,325.481H77.004v-33.832h67.737V325.481z"/>
	<path style="fill:#4D3D36;" d="M299.831,271.25h-88.135c-5.633,0-10.199,4.566-10.199,10.199v54.23
		c0,5.633,4.566,10.199,10.199,10.199h88.135c5.633,0,10.199-4.566,10.199-10.199v-54.23
		C310.03,275.817,305.464,271.25,299.831,271.25z M289.632,325.481h-67.737v-33.832h67.737V325.481z"/>
	<path style="fill:#4D3D36;" d="M357.06,345.879h88.135c5.633,0,10.199-4.566,10.199-10.199v-54.23
		c0-5.633-4.566-10.199-10.199-10.199H357.06c-5.633,0-10.199,4.566-10.199,10.199v54.23
		C346.861,341.313,351.427,345.879,357.06,345.879z M367.259,291.649h67.737v33.832h-67.737V291.649z"/>
	<path style="fill:#4D3D36;" d="M256,392.795c-5.633,0-10.199,4.566-10.199,10.199v3.06c0,5.633,4.566,10.199,10.199,10.199
		c5.633,0,10.199-4.566,10.199-10.199v-3.06C266.199,397.361,261.633,392.795,256,392.795z"/>
</g>
<g>
</g>
<g>
</g>
<g>
</g>
<g>
</g>
<g>
</g>
<g>
</g>
<g>
</g>
<g>
</g>
<g>
</g>
<g>
</g>
<g>
</g>
<g>
</g>
<g>
</g>
<g>
</g>
<g>
</g>
</svg>
