<?xml version="1.0" encoding="iso-8859-1"?>
<!-- Generator: Adobe Illustrator 18.0.0, SVG Export Plug-In . SVG Version: 6.00 Build 0)  -->
<!DOCTYPE svg PUBLIC "-//W3C//DTD SVG 1.1//EN" "http://www.w3.org/Graphics/SVG/1.1/DTD/svg11.dtd">
<svg version="1.1" id="Capa_1" xmlns="http://www.w3.org/2000/svg" xmlns:xlink="http://www.w3.org/1999/xlink" x="0px" y="0px"
	 viewBox="0 0 60 60" style="enable-background:new 0 0 60 60;" xml:space="preserve">
<g>
	<path d="M58.454,42.053C58.055,37.964,55.003,35,51.184,35c-2.396,0-4.407,1.449-5.684,3.213C44.224,36.449,42.212,35,39.817,35
		c-3.818,0-6.871,2.963-7.271,7.052c-0.042,0.267-0.145,1.22,0.226,2.709c0.545,2.197,1.8,4.191,3.631,5.771l9.098,7.785l9.1-7.787
		c1.828-1.575,3.083-3.57,3.629-5.768C58.598,43.272,58.496,42.32,58.454,42.053z M56.287,44.279
		c-0.445,1.794-1.479,3.432-2.99,4.732L45.5,55.684l-7.794-6.67c-1.514-1.305-2.549-2.941-2.993-4.735
		c-0.302-1.213-0.194-1.897-0.194-1.897l0.016-0.105C34.78,39.654,36.672,37,39.817,37c2.189,0,3.974,1.811,4.77,3.605l0.914,2.061
		l0.914-2.061C47.21,38.811,48.995,37,51.184,37c3.145,0,5.037,2.654,5.295,5.367C56.481,42.374,56.591,43.058,56.287,44.279z"/>
	<path d="M18.5,22h20V12h-20V22z M21.5,14h14v2h-14V14z M21.5,18h14v2h-14V18z"/>
	<path d="M29.86,45.483c-0.46-1.858-0.379-3.19-0.289-3.82C30.135,36.171,34.541,32,39.817,32c1.994,0,3.983,0.686,5.684,1.946
		c0.632-0.468,1.303-0.856,2-1.16V0h-36h-10v60h10h31.354l-8.401-7.189C32.143,50.819,30.556,48.286,29.86,45.483z M9.5,58h-6V2h6
		V58z M16.5,10h24v14h-24V10z"/>
</g>
<g>
</g>
<g>
</g>
<g>
</g>
<g>
</g>
<g>
</g>
<g>
</g>
<g>
</g>
<g>
</g>
<g>
</g>
<g>
</g>
<g>
</g>
<g>
</g>
<g>
</g>
<g>
</g>
<g>
</g>
</svg>
