<?xml version="1.0" encoding="iso-8859-1"?>
<!-- Generator: Adobe Illustrator 19.0.0, SVG Export Plug-In . SVG Version: 6.00 Build 0)  -->
<svg version="1.1" id="Layer_1" xmlns="http://www.w3.org/2000/svg" xmlns:xlink="http://www.w3.org/1999/xlink" x="0px" y="0px"
	 viewBox="0 0 512 512" style="enable-background:new 0 0 512 512;" xml:space="preserve">
<path style="fill:#4CAF50;" d="M184.297,427.339h316.184V103.955c0-47.234-38.291-85.525-85.525-85.525h-1.728H98.772
	L184.297,427.339z"/>
<g>
	<path style="fill:#ECF0F1;" d="M98.772,18.43h-1.728c-47.234,0-85.525,38.291-85.525,85.525v323.384h172.778V103.955
		C184.297,56.721,146.006,18.43,98.772,18.43z"/>
	<rect x="236.13" y="122.673" style="fill:#ECF0F1;" width="212.517" height="60.76"/>
</g>
<rect x="236.13" y="183.433" style="fill:#FFC107;" width="212.517" height="192.072"/>
<g>
	<rect x="287.964" y="235.267" style="fill:#ECF0F1;" width="108.85" height="88.405"/>
	<polygon style="fill:#ECF0F1;" points="396.814,235.267 342.389,284.796 287.963,235.267 	"/>
</g>
<g>
	<path style="fill:#231F20;" d="M414.956,6.911H97.044C43.533,6.911,0,50.444,0,103.955V493.57c0,6.361,5.157,11.519,11.519,11.519
		s11.519-5.158,11.519-11.519v-54.713h149.741v54.713c0,6.361,5.157,11.519,11.519,11.519s11.519-5.158,11.519-11.519v-54.713
		h293.147v54.713c0,6.361,5.157,11.519,11.519,11.519c6.362,0,11.519-5.158,11.519-11.519V103.955
		C512,50.444,468.467,6.911,414.956,6.911z M414.956,29.948c40.808,0,74.007,33.199,74.007,74.007V415.82H195.816V103.955
		c0-29.635-13.366-56.192-34.37-74.007H414.956z M23.037,103.955c0-40.808,33.199-74.007,74.007-74.007h1.728
		c40.808,0,74.007,33.199,74.007,74.007V415.82h-63.352V246.785c0-6.361-5.157-11.519-11.519-11.519
		c-6.362,0-11.519,5.158-11.519,11.519V415.82H23.037V103.955z"/>
	<path style="fill:#231F20;" d="M236.13,387.024h212.517c6.362,0,11.519-5.158,11.519-11.519V122.673
		c0-6.361-5.157-11.519-11.519-11.519H236.13c-6.362,0-11.519,5.158-11.519,11.519v252.832
		C224.612,381.866,229.769,387.024,236.13,387.024z M437.129,363.987h-189.48V194.952h189.48V363.987z M247.649,134.191h189.48
		v37.723h-189.48V134.191z"/>
	<path style="fill:#231F20;" d="M287.964,335.19h108.85c6.362,0,11.519-5.158,11.519-11.519v-88.405
		c0-6.361-5.157-11.519-11.519-11.519h-108.85c-6.362,0-11.519,5.158-11.519,11.519v88.405
		C276.445,330.032,281.602,335.19,287.964,335.19z M299.483,312.153v-50.829l35.154,31.992c2.198,2,4.975,2.999,7.752,2.999
		s5.555-1,7.752-2.999l35.155-31.992v50.829H299.483z M367.044,246.785l-24.654,22.437l-24.654-22.437H367.044z"/>
	<path style="fill:#231F20;" d="M98.772,208.774c6.362,0,11.519-5.158,11.519-11.519v-12.382c0-6.361-5.157-11.519-11.519-11.519
		c-6.362,0-11.519,5.158-11.519,11.519v12.382C87.253,203.616,92.41,208.774,98.772,208.774z"/>
</g>
<g>
</g>
<g>
</g>
<g>
</g>
<g>
</g>
<g>
</g>
<g>
</g>
<g>
</g>
<g>
</g>
<g>
</g>
<g>
</g>
<g>
</g>
<g>
</g>
<g>
</g>
<g>
</g>
<g>
</g>
</svg>
