<?xml version="1.0" encoding="iso-8859-1"?>
<!-- Generator: Adobe Illustrator 19.0.0, SVG Export Plug-In . SVG Version: 6.00 Build 0)  -->
<svg version="1.1" id="Layer_1" xmlns="http://www.w3.org/2000/svg" xmlns:xlink="http://www.w3.org/1999/xlink" x="0px" y="0px"
	 viewBox="0 0 512 512" style="enable-background:new 0 0 512 512;" xml:space="preserve">
<path style="fill:#9FC7D1;" d="M384,284.001c-44.112,0-80,35.888-80,80s35.888,80,80,80s80-35.888,80-80
	S428.112,284.001,384,284.001z M424.744,369.497l-34.816,34.808c-1.56,1.56-3.608,2.344-5.656,2.344s-4.096-0.784-5.656-2.344
	L343.8,369.497c-10.392-10.392-10.384-27.304,0-37.688c8.96-8.952,23.104-10.352,33.632-3.336l6.84,4.56l6.84-4.56
	c10.528-7.032,24.68-5.624,33.632,3.336c5.032,5.032,7.808,11.72,7.808,18.84C432.552,357.769,429.776,364.465,424.744,369.497z"/>
<path style="fill:#E87B5A;" d="M399.984,341.793l-11.28,7.52c-2.688,1.792-6.192,1.792-8.872,0l-11.28-7.52
	c-1.792-1.192-3.848-1.784-5.896-1.784c-2.76,0-5.496,1.056-7.544,3.112c-4.152,4.152-4.152,10.912,0,15.064l29.152,29.152
	l29.152-29.152c2.016-2.008,3.12-4.688,3.12-7.528s-1.112-5.52-3.12-7.528C409.848,339.537,404.208,338.993,399.984,341.793z"/>
<path style="fill:#FFFFFF;" d="M472,156.001h-68.688l-93.656,93.656c-1.504,1.504-3.536,2.344-5.656,2.344h-40h-80v-16h72v-32
	c0-2.12,0.84-4.16,2.344-5.656l42.344-42.344H80c-10.416,0-19.216,6.704-22.528,16H72c13.232,0,24,10.768,24,24s-10.768,24-24,24H56
	v16h16c13.232,0,24,10.768,24,24s-10.768,24-24,24H56v16h16c13.232,0,24,10.768,24,24s-10.768,24-24,24H56v16h16
	c13.232,0,24,10.768,24,24s-10.768,24-24,24H56v16h16c13.232,0,24,10.768,24,24s-10.768,24-24,24H57.472
	c3.312,9.288,12.112,16,22.528,16h392c13.232,0,24-10.768,24-24v-288C496,166.769,485.232,156.001,472,156.001z M112,236.001h56v16
	h-56V236.001z M272,452.001H112v-16h160V452.001z M272,412.001H112v-16h160V412.001z M272,372.001H112v-16h160V372.001z
	 M272,332.001H112v-16h160V332.001z M272,292.001H112v-16h160V292.001z M384,460.001c-52.936,0-96-43.064-96-96s43.064-96,96-96
	s96,43.064,96,96S436.936,460.001,384,460.001z"/>
<g>
	<path style="fill:#EEC97B;" d="M80,388.001c0-4.408-3.592-8-8-8H24c-4.408,0-8,3.592-8,8c0,4.416,3.592,8,8,8h48
		C76.408,396.001,80,392.417,80,388.001z"/>
	<path style="fill:#EEC97B;" d="M80,452.001c0-4.416-3.592-8-8-8H24c-4.408,0-8,3.584-8,8s3.592,8,8,8h48
		C76.408,460.001,80,456.417,80,452.001z"/>
	<polygon style="fill:#EEC97B;" points="272,236.001 300.688,236.001 484.688,52.001 456,23.313 272,207.313 	"/>
	<path style="fill:#EEC97B;" d="M80,324.001c0-4.408-3.592-8-8-8H24c-4.408,0-8,3.592-8,8s3.592,8,8,8h48
		C76.408,332.001,80,328.409,80,324.001z"/>
	<path style="fill:#EEC97B;" d="M80,260.001c0-4.408-3.592-8-8-8H24c-4.408,0-8,3.592-8,8c0,4.408,3.592,8,8,8h48
		C76.408,268.001,80,264.409,80,260.001z"/>
	<path style="fill:#EEC97B;" d="M80,196.001c0-4.408-3.592-8-8-8H24c-4.408,0-8,3.592-8,8s3.592,8,8,8h48
		C76.408,204.001,80,200.409,80,196.001z"/>
</g>
<g>
	<path style="fill:#3C4A53;" d="M472,140.001h-52.688l82.344-82.344c3.128-3.128,3.128-8.184,0-11.312l-40-40
		c-3.128-3.128-8.184-3.128-11.312,0L316.688,140.001H80c-19.312,0-35.472,13.768-39.192,32H24c-13.232,0-24,10.768-24,24
		s10.768,24,24,24h16v16H24c-13.232,0-24,10.768-24,24s10.768,24,24,24h16v16H24c-13.232,0-24,10.768-24,24s10.768,24,24,24h16v16
		H24c-13.232,0-24,10.768-24,24s10.768,24,24,24h16v16H24c-13.232,0-24,10.768-24,24s10.768,24,24,24h16.808
		c3.72,18.232,19.872,32,39.192,32h392c22.056,0,40-17.944,40-40v-288C512,157.945,494.056,140.001,472,140.001z M456,23.313
		l28.688,28.688l-184,184H272v-28.688L456,23.313z M24,204.001c-4.408,0-8-3.592-8-8s3.592-8,8-8h48c4.408,0,8,3.592,8,8
		s-3.592,8-8,8H24z M24,268.001c-4.408,0-8-3.592-8-8s3.592-8,8-8h48c4.408,0,8,3.592,8,8c0,4.408-3.592,8-8,8H24z M24,332.001
		c-4.408,0-8-3.592-8-8s3.592-8,8-8h48c4.408,0,8,3.592,8,8s-3.592,8-8,8H24z M24,396.001c-4.408,0-8-3.584-8-8c0-4.408,3.592-8,8-8
		h48c4.408,0,8,3.592,8,8c0,4.416-3.592,8-8,8H24z M24,460.001c-4.408,0-8-3.584-8-8s3.592-8,8-8h48c4.408,0,8,3.584,8,8
		s-3.592,8-8,8H24z M496,468.001c0,13.232-10.768,24-24,24H80c-10.416,0-19.216-6.712-22.528-16H72c13.232,0,24-10.768,24-24
		s-10.768-24-24-24H56v-16h16c13.232,0,24-10.768,24-24s-10.768-24-24-24H56v-16h16c13.232,0,24-10.768,24-24s-10.768-24-24-24H56
		v-16h16c13.232,0,24-10.768,24-24s-10.768-24-24-24H56v-16h16c13.232,0,24-10.768,24-24s-10.768-24-24-24H57.472
		c3.312-9.296,12.112-16,22.528-16h220.688l-42.344,42.344c-1.504,1.504-2.344,3.536-2.344,5.656v32h-72v16h80h40
		c2.12,0,4.152-0.84,5.656-2.344l93.656-93.656H472c13.232,0,24,10.768,24,24V468.001z"/>
	<rect x="112" y="236.001" style="fill:#3C4A53;" width="56" height="16"/>
	<path style="fill:#3C4A53;" d="M391.112,328.481l-6.84,4.56l-6.84-4.56c-10.528-7.016-24.664-5.624-33.632,3.336
		c-10.384,10.384-10.392,27.296,0,37.688l34.816,34.808c1.56,1.56,3.608,2.344,5.656,2.344s4.096-0.784,5.656-2.344l34.816-34.808
		c5.032-5.032,7.808-11.728,7.808-18.84c0-7.12-2.776-13.816-7.808-18.84C415.792,322.857,401.648,321.449,391.112,328.481z
		 M413.432,358.185l-29.152,29.152l-29.152-29.152c-4.152-4.152-4.16-10.912,0-15.064c2.056-2.056,4.792-3.112,7.544-3.112
		c2.04,0,4.104,0.584,5.896,1.784l11.28,7.52c2.688,1.792,6.184,1.792,8.872,0l11.28-7.52c4.224-2.8,9.864-2.256,13.44,1.336
		c2.016,2.008,3.12,4.688,3.12,7.528C416.552,353.497,415.44,356.177,413.432,358.185z"/>
	<path style="fill:#3C4A53;" d="M384,268.001c-52.936,0-96,43.064-96,96s43.064,96,96,96s96-43.064,96-96
		S436.936,268.001,384,268.001z M384,444.001c-44.112,0-80-35.888-80-80s35.888-80,80-80s80,35.888,80,80
		S428.112,444.001,384,444.001z"/>
	<rect x="112" y="276.001" style="fill:#3C4A53;" width="160" height="16"/>
	<rect x="112" y="316.001" style="fill:#3C4A53;" width="160" height="16"/>
	<rect x="112" y="356.001" style="fill:#3C4A53;" width="160" height="16"/>
	<rect x="112" y="396.001" style="fill:#3C4A53;" width="160" height="16"/>
	<rect x="112" y="436.001" style="fill:#3C4A53;" width="160" height="16"/>
	<rect x="296" y="108.001" style="fill:#3C4A53;" width="16" height="16"/>
	<rect x="264" y="108.001" style="fill:#3C4A53;" width="16" height="16"/>
	<rect x="232" y="108.001" style="fill:#3C4A53;" width="16" height="16"/>
</g>
<g>
</g>
<g>
</g>
<g>
</g>
<g>
</g>
<g>
</g>
<g>
</g>
<g>
</g>
<g>
</g>
<g>
</g>
<g>
</g>
<g>
</g>
<g>
</g>
<g>
</g>
<g>
</g>
<g>
</g>
</svg>
